<svg xmlns="http://www.w3.org/2000/svg" width="256" height="256" viewBox="0 0 100 100"><rect width="100" height="100" rx="50" fill="#83624f"></rect><path fill="#f1c4ac" d="M12.64 55.92L12.64 74.16Q12.16 74.32 11.36 74.52Q10.56 74.72 9.60 74.72L9.60 74.72Q6.08 74.72 6.08 71.76L6.08 71.76L6.08 29.20Q6.08 27.92 6.72 27.24Q7.36 26.56 8.72 26.16L8.72 26.16Q11.04 25.44 14.44 25.12Q17.84 24.80 21.04 24.80L21.04 24.80Q31.12 24.80 36.04 28.84Q40.96 32.88 40.96 40.32L40.96 40.32Q40.96 45.84 38.12 49.60Q35.28 53.36 29.52 54.96L29.52 54.96Q31.52 57.52 33.52 60.08Q35.52 62.64 37.32 64.92Q39.12 67.20 40.52 69.04Q41.92 70.88 42.72 71.92L42.72 71.92Q42.40 73.28 41.32 74.08Q40.24 74.88 39.12 74.88L39.12 74.88Q37.76 74.88 36.88 74.24Q36 73.60 35.04 72.24L35.04 72.24L23.36 55.92L12.64 55.92ZM12.56 50.48L21.76 50.48Q27.68 50.48 31.04 47.92Q34.40 45.36 34.40 40.32L34.40 40.32Q34.40 35.28 30.88 32.76Q27.36 30.24 20.80 30.24L20.80 30.24Q18.64 30.24 16.44 30.44Q14.24 30.64 12.56 30.96L12.56 30.96L12.56 50.48ZM87.28 49.44L87.28 49.44Q87.28 44.32 85.72 40.68Q84.16 37.04 81.48 34.72Q78.80 32.40 75.24 31.32Q71.68 30.24 67.60 30.24L67.60 30.24Q65.04 30.24 63.16 30.40Q61.28 30.56 59.68 30.88L59.68 30.88L59.68 68.96Q61.60 69.44 63.80 69.60Q66 69.76 68.32 69.76L68.32 69.76Q77.76 69.76 82.52 64.64Q87.28 59.52 87.28 49.44ZM93.92 49.44L93.92 49.44Q93.92 56.00 92.12 60.84Q90.32 65.68 87 68.88Q83.68 72.08 78.96 73.64Q74.24 75.20 68.40 75.20L68.40 75.20Q65.84 75.20 62.64 75.00Q59.44 74.80 56.56 73.92L56.56 73.92Q53.20 72.88 53.20 70.24L53.20 70.24L53.20 29.12Q53.20 27.84 53.84 27.16Q54.48 26.48 55.84 26.08L55.84 26.08Q58.32 25.28 61.44 25.04Q64.56 24.80 67.68 24.80L67.68 24.80Q73.52 24.80 78.36 26.36Q83.20 27.92 86.64 31.00Q90.08 34.08 92 38.68Q93.92 43.28 93.92 49.44Z"></path></svg>